<svg xmlns="http://www.w3.org/2000/svg" viewBox="0 0 64 64">
  <title>Seoul 2026 · cherry blossom</title>
  <rect x="2" y="2" width="60" height="60" rx="12" fill="#fdf6e3"/>
  <g transform="translate(32 32) rotate(-6)">
    <g fill="#f0a8b5">
      <path d="M0,-19 Q-2,-16 -5,-17 Q-10,-15 -10.5,-7 Q-10,-1 0,-1 Q10,-1 10.5,-7 Q10,-15 5,-17 Q2,-16 0,-19 Z"/>
      <path d="M0,-19 Q-2,-16 -5,-17 Q-10,-15 -10.5,-7 Q-10,-1 0,-1 Q10,-1 10.5,-7 Q10,-15 5,-17 Q2,-16 0,-19 Z" transform="rotate(72)"/>
      <path d="M0,-19 Q-2,-16 -5,-17 Q-10,-15 -10.5,-7 Q-10,-1 0,-1 Q10,-1 10.5,-7 Q10,-15 5,-17 Q2,-16 0,-19 Z" transform="rotate(144)"/>
      <path d="M0,-19 Q-2,-16 -5,-17 Q-10,-15 -10.5,-7 Q-10,-1 0,-1 Q10,-1 10.5,-7 Q10,-15 5,-17 Q2,-16 0,-19 Z" transform="rotate(216)"/>
      <path d="M0,-19 Q-2,-16 -5,-17 Q-10,-15 -10.5,-7 Q-10,-1 0,-1 Q10,-1 10.5,-7 Q10,-15 5,-17 Q2,-16 0,-19 Z" transform="rotate(288)"/>
    </g>
    <g fill="#fce8ec" opacity="0.85">
      <ellipse cx="0" cy="-11" rx="3" ry="5.5"/>
      <ellipse cx="0" cy="-11" rx="3" ry="5.5" transform="rotate(72)"/>
      <ellipse cx="0" cy="-11" rx="3" ry="5.5" transform="rotate(144)"/>
      <ellipse cx="0" cy="-11" rx="3" ry="5.5" transform="rotate(216)"/>
      <ellipse cx="0" cy="-11" rx="3" ry="5.5" transform="rotate(288)"/>
    </g>
    <circle cx="0" cy="0" r="3.4" fill="#e8945a"/>
    <circle cx="2" cy="-1.6" r="0.9" fill="#d85d56"/>
    <circle cx="-2" cy="-1.6" r="0.9" fill="#d85d56"/>
    <circle cx="1.3" cy="2" r="0.9" fill="#d85d56"/>
    <circle cx="-1.3" cy="2" r="0.9" fill="#d85d56"/>
  </g>
</svg>
